<svg width="50" height="50" viewBox="0 0 50 50" fill="none" xmlns="http://www.w3.org/2000/svg">
<path fill-rule="evenodd" clip-rule="evenodd" d="M11.875 16.2727C11.8706 13.1915 13.0337 10.2146 15.1458 7.90121C17.2579 5.58781 20.1738 4.09696 23.3458 3.70862C26.5179 3.32028 29.728 4.06117 32.3733 5.79216C35.0186 7.52314 36.9172 10.1252 37.7125 13.1096C37.8476 13.5615 38.1603 13.9448 38.584 14.1782C39.0078 14.4115 39.5093 14.4764 39.9819 14.359C40.4545 14.2417 40.861 13.9515 41.1151 13.5499C41.3692 13.1484 41.4507 12.6672 41.3425 12.2086C40.3183 8.37356 37.8771 5.03045 34.4769 2.80654C31.0767 0.582628 26.9512 -0.369236 22.8745 0.129546C18.7978 0.628328 15.0501 2.54347 12.3345 5.51565C9.61891 8.48782 8.12213 12.3127 8.125 16.2727V21.2234C5.3375 21.4234 3.525 21.9293 2.1975 23.2085C-1.49012e-07 25.3237 0 28.7326 0 35.5455C0 42.3584 -1.49012e-07 45.7672 2.1975 47.8824C4.3925 50 7.93 50 15 50H35C42.07 50 45.6075 50 47.8025 47.8824C50 45.7672 50 42.3584 50 35.5455C50 28.7326 50 25.3237 47.8025 23.2085C45.6075 21.0909 42.07 21.0909 35 21.0909H15C13.87 21.0909 12.8325 21.0909 11.875 21.1006V16.2727ZM15 37.9546C15.663 37.9546 16.2989 37.7007 16.7678 37.2489C17.2366 36.7972 17.5 36.1844 17.5 35.5455C17.5 34.9065 17.2366 34.2938 16.7678 33.842C16.2989 33.3902 15.663 33.1364 15 33.1364C14.337 33.1364 13.7011 33.3902 13.2322 33.842C12.7634 34.2938 12.5 34.9065 12.5 35.5455C12.5 36.1844 12.7634 36.7972 13.2322 37.2489C13.7011 37.7007 14.337 37.9546 15 37.9546ZM25 37.9546C25.663 37.9546 26.2989 37.7007 26.7678 37.2489C27.2366 36.7972 27.5 36.1844 27.5 35.5455C27.5 34.9065 27.2366 34.2938 26.7678 33.842C26.2989 33.3902 25.663 33.1364 25 33.1364C24.337 33.1364 23.7011 33.3902 23.2322 33.842C22.7634 34.2938 22.5 34.9065 22.5 35.5455C22.5 36.1844 22.7634 36.7972 23.2322 37.2489C23.7011 37.7007 24.337 37.9546 25 37.9546ZM37.5 35.5455C37.5 36.1844 37.2366 36.7972 36.7678 37.2489C36.2989 37.7007 35.663 37.9546 35 37.9546C34.337 37.9546 33.7011 37.7007 33.2322 37.2489C32.7634 36.7972 32.5 36.1844 32.5 35.5455C32.5 34.9065 32.7634 34.2938 33.2322 33.842C33.7011 33.3902 34.337 33.1364 35 33.1364C35.663 33.1364 36.2989 33.3902 36.7678 33.842C37.2366 34.2938 37.5 34.9065 37.5 35.5455Z" fill="#F8F8F8"/>
</svg>
